HIERARCHY
ROOT Hips
{
 OFFSET 0.000000 0.000000 0.000000
 CHANNELS 6 Xposition Yposition Zposition Yrotation Xrotation Zrotation
 JOINT Chest
 {
  OFFSET 0.000000 9.585900 0.002600
  CHANNELS 3 Yrotation Xrotation Zrotation
  JOINT Chest2
  {
   OFFSET 0.000000 9.601200 -0.005300
   CHANNELS 3 Yrotation Xrotation Zrotation
   JOINT Chest3
   {
    OFFSET 0.000000 9.561800 0.000000
    CHANNELS 3 Yrotation Xrotation Zrotation
    JOINT Chest4
    {
     OFFSET 0.000000 9.552100 0.000000
     CHANNELS 3 Yrotation Xrotation Zrotation
     JOINT Neck
     {
      OFFSET 0.000000 14.453000 0.000000
      CHANNELS 3 Yrotation Xrotation Zrotation
      JOINT Head
      {
       OFFSET 0.000000 8.936500 -0.011300
       CHANNELS 3 Yrotation Xrotation Zrotation
       End Site
       {
        OFFSET 0.000000 17.073600 -0.006000
       }
      }
     }
     JOINT RightCollar
     {
      OFFSET -2.921100 9.558500 0.000000
      CHANNELS 3 Yrotation Xrotation Zrotation
      JOINT RightShoulder
      {
       OFFSET -13.519700 0.000000 0.000000
       CHANNELS 3 Yrotation Xrotation Zrotation
       JOINT RightElbow
       {
        OFFSET 0.000000 -29.696600 0.000000
        CHANNELS 3 Yrotation Xrotation Zrotation
        JOINT RightWrist
        {
         OFFSET 0.000000 -24.004700 0.000000
         CHANNELS 3 Yrotation Xrotation Zrotation
         End Site
         {
          OFFSET 0.000000 -17.728500 0.000000
         }
        }
       }
      }
     }
     JOINT LeftCollar
     {
      OFFSET 2.921100 9.558500 0.000000
      CHANNELS 3 Yrotation Xrotation Zrotation
      JOINT LeftShoulder
      {
       OFFSET 13.519700 0.000000 0.000000
       CHANNELS 3 Yrotation Xrotation Zrotation
       JOINT LeftElbow
       {
        OFFSET 0.000000 -29.696600 0.000000
        CHANNELS 3 Yrotation Xrotation Zrotation
        JOINT LeftWrist
        {
         OFFSET 0.000000 -24.004700 0.000000
         CHANNELS 3 Yrotation Xrotation Zrotation
         End Site
         {
          OFFSET 0.000000 -17.728500 0.000000
         }
        }
       }
      }
     }
    }
   }
  }
 }
 JOINT RightHip
 {
  OFFSET -7.771700 -0.012900 -0.001300
  CHANNELS 3 Yrotation Xrotation Zrotation
  JOINT RightKnee
  {
   OFFSET 0.000000 -40.869800 0.001200
   CHANNELS 3 Yrotation Xrotation Zrotation
   JOINT RightAnkle
   {
    OFFSET 0.000000 -39.717900 0.002100
    CHANNELS 3 Yrotation Xrotation Zrotation
    JOINT RightToe
    {
     OFFSET 0.000000 -4.965400 11.033500
     CHANNELS 3 Yrotation Xrotation Zrotation
     End Site
     {
      OFFSET 0.000000 -1.423100 5.872300
     }
    }
   }
  }
 }
 JOINT LeftHip
 {
  OFFSET 7.771700 -0.012900 -0.001300
  CHANNELS 3 Yrotation Xrotation Zrotation
  JOINT LeftKnee
  {
   OFFSET 0.000000 -40.869800 0.001200
   CHANNELS 3 Yrotation Xrotation Zrotation
   JOINT LeftAnkle
   {
    OFFSET 0.000000 -39.717900 0.002100
    CHANNELS 3 Yrotation Xrotation Zrotation
    JOINT LeftToe
    {
     OFFSET 0.000000 -4.965400 11.033500
     CHANNELS 3 Yrotation Xrotation Zrotation
     End Site
     {
      OFFSET 0.000000 -1.423100 5.872300
     }
    }
   }
  }
 }
}
MOTION
Frames: 16
Frame Time: 0.008333
-35.607460 58.030353 12.873178 177.638879 -51.607309 -4.234007 3.065327 22.295296 2.961365 1.568633 12.763788 1.510017 2.027878 15.947401 1.956337 1.558113 12.768834 1.515681 0.506923 17.727581 3.873638 -0.383583 -2.814706 6.970031 1.641874 4.984863 0.285538 -0.488168 -13.510190 -11.331717 -68.484548 -56.740590 119.163192 3.698945 25.587788 -21.607370 -8.977224 1.764633 -1.349055 -0.866986 -11.766657 14.223582 102.153560 -71.455285 -137.439144 -17.375038 12.303057 -10.946350 1.854400 -19.897179 -2.563382 -32.134048 72.511609 -35.598418 7.337619 -12.629222 11.094054 0.010852 0.009095 0.042553 -6.372361 -17.352264 6.562846 85.938161 82.328577 85.915602 1.079167 -21.729833 -17.937478 -0.010089 0.002210 0.019782
-35.612036 58.030423 12.870985 177.663671 -51.619504 -4.229547 3.052910 22.303301 2.945439 1.568578 12.763892 1.508832 2.046693 15.937787 1.954789 1.551248 12.773014 1.514440 0.488670 17.702157 3.834838 -0.409308 -2.838254 6.934691 1.646762 4.982480 0.281357 -0.475420 -13.507213 -11.333123 -68.510277 -56.751527 119.172860 3.700281 25.587815 -21.591282 -8.962064 1.770995 -1.342485 -0.841017 -11.770282 14.203318 102.151470 -71.469186 -137.481451 -17.371803 12.296042 -10.939889 1.849957 -19.883142 -2.582013 -32.111725 72.525333 -35.603794 7.317533 -12.638868 11.119848 -0.002343 0.004817 0.032449 -6.362967 -17.340058 6.565266 85.880336 82.353085 85.845067 1.056350 -21.730645 -17.918434 0.000337 0.001084 0.023266
-35.617619 58.031458 12.867468 177.716562 -51.639969 -4.241199 3.060692 22.298870 2.949283 1.542193 12.777009 1.500962 2.054674 15.935084 1.952560 1.569047 12.763872 1.507182 0.453208 17.698776 3.822833 -0.433657 -2.866253 6.892728 1.627577 4.989294 0.292486 -0.495196 -13.494191 -11.318143 -68.519370 -56.773792 119.197358 3.753950 25.598723 -21.541993 -8.974238 1.786882 -1.324888 -0.828336 -11.768251 14.189962 102.202082 -71.472855 -137.541503 -17.366339 12.299873 -10.953650 1.836043 -19.861606 -2.598212 -32.167159 72.523648 -35.663076 7.299378 -12.635792 11.115877 0.001372 -0.003204 0.028918 -6.381934 -17.320851 6.538182 85.886769 82.347094 85.829279 1.054124 -21.732430 -17.909166 -0.011295 0.006290 0.024731
-35.621056 58.031337 12.864814 177.743279 -51.654055 -4.245965 3.051619 22.307696 2.940558 1.555848 12.770617 1.505330 2.057257 15.935816 1.948466 1.571295 12.764237 1.506676 0.437244 17.684934 3.799705 -0.456078 -2.892002 6.855760 1.649282 4.978550 0.274722 -0.510750 -13.485442 -11.297134 -68.541845 -56.782224 119.205814 3.748239 25.599632 -21.546156 -8.969704 1.787607 -1.319885 -0.817421 -11.766921 14.180988 102.235772 -71.476921 -137.585780 -17.364325 12.301986 -10.958553 1.843479 -19.845044 -2.600711 -32.241611 72.520715 -35.744871 7.282230 -12.641269 11.121026 0.007596 -0.006164 0.039884 -6.380424 -17.307075 6.537990 85.851108 82.365933 85.778820 1.043877 -21.734026 -17.885847 -0.007727 0.007393 0.022278
-35.626600 58.030911 12.861862 177.770277 -51.668486 -4.238885 3.037547 22.317460 2.918077 1.596531 12.751286 1.509197 2.033996 15.948503 1.952045 1.561191 12.769921 1.511692 0.431838 17.673121 3.778402 -0.471372 -2.919818 6.809202 1.664845 4.973456 0.264840 -0.515633 -13.485025 -11.294423 -68.564004 -56.790317 119.227351 3.746624 25.605845 -21.538124 -8.921270 1.765137 -1.333068 -0.843165 -11.748023 14.183049 102.347150 -71.468225 -137.661743 -17.362711 12.318101 -11.011856 1.841597 -19.828821 -2.624437 -32.287938 72.526555 -35.820801 7.284010 -12.658197 11.146316 -0.002028 -0.006836 0.042807 -6.374023 -17.296493 6.529896 85.850492 82.375506 85.749266 1.019662 -21.735784 -17.846218 -0.007858 0.007723 0.016461
-35.630416 58.029975 12.859385 177.794677 -51.680138 -4.240881 3.040587 22.316955 2.911534 1.597737 12.751635 1.512173 2.035914 15.949191 1.951484 1.551784 12.775421 1.515339 0.423113 17.672227 3.777311 -0.476854 -2.945263 6.760651 1.659174 4.975345 0.269000 -0.451110 -13.497951 -11.326965 -68.608972 -56.783189 119.229197 3.754855 25.615272 -21.518479 -8.901863 1.755673 -1.338804 -0.841456 -11.744100 14.176301 102.342268 -71.477474 -137.677228 -17.362754 12.316257 -11.013038 1.836890 -19.816548 -2.638286 -32.300508 72.531763 -35.845688 7.280442 -12.664759 11.152671 -0.011695 -0.008578 0.040443 -6.371527 -17.288679 6.528428 85.855063 82.386159 85.736398 1.013691 -21.736042 -17.834973 -0.013663 0.009078 0.020902
-35.632907 58.028664 12.857313 177.821941 -51.689310 -4.253877 3.067945 22.300256 2.935669 1.576352 12.765991 1.505382 2.037448 15.950311 1.950684 1.576346 12.766019 1.505343 0.389813 17.667732 3.769133 -0.487489 -2.934433 6.781108 1.644720 4.982018 0.277411 -0.455374 -13.496178 -11.320774 -68.628422 -56.779078 119.230248 3.755625 25.617767 -21.514154 -8.919921 1.763727 -1.324627 -0.856509 -11.737077 14.178295 102.353402 -71.479637 -137.690115 -17.362867 12.319018 -11.025416 1.830075 -19.806308 -2.640928 -32.319350 72.533383 -35.870999 7.274266 -12.668298 11.160372 -0.014191 -0.010759 0.024688 -6.357010 -17.287018 6.545924 85.851955 82.414065 85.739682 0.994673 -21.735147 -17.822383 -0.004062 0.004856 0.024989
-35.636838 58.027379 12.855043 177.845576 -51.699544 -4.256280 3.073092 22.299940 2.938199 1.571785 12.769729 1.503081 2.038655 15.951230 1.950415 1.583629 12.764844 1.503696 0.377140 17.657868 3.745078 -0.493013 -2.976915 6.687989 1.682949 4.962690 0.260013 -0.502049 -13.478149 -11.302007 -68.641700 -56.772083 119.233436 3.756588 25.618428 -21.513418 -8.921660 1.761009 -1.322577 -0.867649 -11.732950 14.179412 102.403983 -71.473732 -137.722296 -17.363837 12.322472 -11.039634 1.832548 -19.797934 -2.645856 -32.365293 72.535191 -35.928924 7.259667 -12.670754 11.169642 -0.016344 -0.013634 0.029899 -6.358993 -17.279487 6.534251 85.851392 82.419839 85.738688 0.990804 -21.735220 -17.820255 0.001841 0.003796 0.024630
-35.640742 58.025790 12.853093 177.860252 -51.707214 -4.253009 3.081697 22.297005 2.939556 1.555685 12.778305 1.497742 2.039053 15.951488 1.950438 1.590310 12.763177 1.502342 0.396794 17.632113 3.683997 -0.517450 -2.985220 6.674525 1.685435 4.959564 0.259528 -0.491035 -13.478738 -11.313404 -68.651632 -56.774736 119.236435 3.784104 25.621161 -21.476805 -8.908848 1.754536 -1.328296 -0.863930 -11.736270 14.175218 102.414700 -71.471762 -137.733470 -17.375476 12.308329 -11.033716 1.854651 -19.787299 -2.648781 -32.429859 72.531260 -35.998731 7.228691 -12.676256 11.189109 -0.010027 -0.012341 0.034440 -6.356208 -17.275108 6.525995 85.873663 82.415850 85.748999 0.976991 -21.736759 -17.805940 0.004375 0.003563 0.020489
-35.643743 58.024397 12.851223 177.871484 -51.714875 -4.253699 3.088269 22.297233 2.941983 1.562969 12.774967 1.501217 2.040844 15.952588 1.950157 1.579116 12.767939 1.504941 0.402331 17.623613 3.657630 -0.527140 -2.993123 6.662143 1.687642 4.956883 0.259599 -0.490604 -13.476111 -11.316778 -68.660240 -56.785109 119.253926 3.783484 25.620231 -21.472760 -8.893367 1.747776 -1.335564 -0.846974 -11.752853 14.163966 102.433092 -71.475150 -137.746596 -17.376377 12.315984 -11.062888 1.860470 -19.777580 -2.653160 -32.439474 72.533789 -36.022443 7.248384 -12.688567 11.197763 -0.006246 -0.012027 0.026489 -6.345722 -17.268643 6.531958 85.868795 82.420239 85.738403 0.961961 -21.739545 -17.795350 0.008313 0.004132 0.019741
-35.648228 58.023297 12.849058 177.890392 -51.723169 -4.252594 3.076265 22.304604 2.928625 1.607575 12.762868 1.507576 2.021159 15.956782 1.952710 1.607990 12.767081 1.495151 0.375572 17.620937 3.659635 -0.542065 -2.990342 6.682556 1.660688 4.950152 0.281593 -0.498483 -13.465962 -11.315001 -68.681181 -56.795745 119.270684 3.782331 25.623839 -21.459772 -8.918009 1.748206 -1.316422 -0.870958 -11.745087 14.172620 102.455785 -71.472193 -137.753357 -17.379766 12.313511 -11.054108 1.858050 -19.767506 -2.667254 -32.434046 72.539286 -36.033516 7.251830 -12.696082 11.202183 -0.005572 -0.013085 0.026185 -6.340005 -17.263851 6.524073 85.850927 82.420958 85.714739 0.951775 -21.735205 -17.784676 0.005881 0.003290 0.018790
-35.651659 58.022548 12.846914 177.918952 -51.731222 -4.266210 3.080503 22.307408 2.931356 1.607191 12.763207 1.508497 2.049409 15.954236 1.949711 1.585796 12.769240 1.504352 0.373423 17.613132 3.645314 -0.543288 -3.002193 6.654505 1.663488 4.944533 0.286076 -0.494512 -13.468162 -11.317919 -68.701666 -56.812154 119.299469 3.753823 25.623251 -21.480305 -8.910705 1.740718 -1.311879 -0.876440 -11.747349 14.170720 102.418114 -71.479973 -137.734704 -17.382557 12.308738 -11.029144 1.857584 -19.753921 -2.667944 -32.462408 72.537182 -36.069805 7.254242 -12.705291 11.214209 -0.005555 -0.012684 0.020950 -6.340834 -17.258536 6.523058 85.835508 82.426090 85.698213 0.939450 -21.732262 -17.773785 0.011123 0.001314 0.017426
-35.655474 58.022677 12.844187 177.971037 -51.743087 -4.296257 3.066705 22.314977 2.932752 1.609099 12.763465 1.508135 2.050530 15.954127 1.947813 1.586732 12.769099 1.502808 0.364791 17.611273 3.647463 -0.534530 -3.022107 6.612176 1.674526 4.943050 0.286670 -0.481369 -13.476207 -11.325167 -68.728698 -56.802293 119.292287 3.753136 25.627000 -21.472828 -8.916418 1.740788 -1.301301 -0.837453 -11.776072 14.152495 102.349801 -71.488879 -137.701145 -17.382558 12.311198 -11.025546 1.851503 -19.727181 -2.666135 -32.513291 72.520905 -36.114317 7.251323 -12.715053 11.209646 -0.015284 -0.008245 0.026252 -6.349299 -17.250740 6.531391 85.848775 82.437721 85.711582 0.922957 -21.730780 -17.768944 0.010896 -0.000954 0.024882
-35.659318 58.022163 12.842157 177.994908 -51.749658 -4.304056 3.070154 22.316955 2.934481 1.610996 12.761992 1.507929 2.052083 15.953999 1.946625 1.588052 12.768995 1.501770 0.354189 17.609826 3.647629 -0.523739 -3.042082 6.570904 1.688163 4.936336 0.276798 -0.505619 -13.473796 -11.308998 -68.738721 -56.801371 119.295889 3.754824 25.631214 -21.461694 -8.924561 1.741443 -1.292142 -0.833622 -11.784992 14.148892 102.341982 -71.491640 -137.686913 -17.380075 12.310471 -11.034174 1.853971 -19.715341 -2.671260 -32.542752 72.517276 -36.143421 7.243842 -12.722431 11.206505 -0.023690 -0.005257 0.034012 -6.350769 -17.245906 6.529733 85.858665 82.441260 85.713980 0.909597 -21.732766 -17.754894 0.013826 -0.001023 0.022410
-35.664398 58.021783 12.840099 178.016078 -51.756370 -4.301868 3.083858 22.313458 2.936191 1.588910 12.768966 1.501696 2.066740 15.949237 1.946676 1.576487 12.773087 1.505402 0.360458 17.601967 3.625820 -0.509600 -3.074044 6.508924 1.687466 4.934253 0.276060 -0.510593 -13.474426 -11.306519 -68.740270 -56.800498 119.295198 3.766560 25.636937 -21.444494 -8.878289 1.722166 -1.313034 -0.877491 -11.774014 14.169052 102.319517 -71.483205 -137.637732 -17.394669 12.309968 -11.077526 1.854609 -19.705563 -2.684633 -32.550372 72.520282 -36.164008 7.200330 -12.724772 11.218045 -0.012932 -0.003569 0.039319 -6.352839 -17.240960 6.514856 85.872651 82.438058 85.717866 0.897444 -21.734943 -17.742274 0.014829 -0.000559 0.019012
-35.669480 58.021289 12.838431 178.033127 -51.761146 -4.295775 3.075565 22.315521 2.920865 1.590235 12.768645 1.502133 2.069766 15.948708 1.947381 1.576627 12.772868 1.506180 0.367819 17.592554 3.605973 -0.506862 -3.089904 6.476368 1.697870 4.928183 0.270918 -0.528677 -13.471548 -11.300033 -68.735080 -56.798915 119.290418 3.776525 25.640942 -21.430843 -8.876094 1.722113 -1.314354 -0.870983 -11.779165 14.167507 102.294982 -71.479457 -137.613125 -17.401273 12.298959 -11.083526 1.857919 -19.698171 -2.697872 -32.529414 72.534381 -36.170991 7.177489 -12.741874 11.232287 -0.020558 -0.001765 0.034785 -6.353280 -17.237917 6.498724 85.873810 82.442342 85.709622 0.900149 -21.736825 -17.737515 0.011156 0.002036 0.020334
